<svg fill="#000000" xmlns="http://www.w3.org/2000/svg"  viewBox="0 0 50 50" width="500px" height="500px"><path d="M47,19h-1.732c0.342-0.663,0.532-1.413,0.532-2.2c0-2.647-2.153-4.8-4.8-4.8h-6h-2v2v1.117l-0.609-1.768L31.926,12H30.5h-4.2H26h-2h-0.2H10.3C7.889,12,6,13.933,6,16.4c0,0.914,0.261,1.476,0.515,1.906l0.081,0.161L6.7,18.6c0.051,0.068,0.152,0.211,0.284,0.4H2H0v2v2v2v1.124l0.503,1.508l3,9L3.958,38H5.4h1.7h1.425l0.465-1.347L9,36.625l0.01,0.028L9.475,38H10.9h1.7h0.254H15.6H18h1.419l0.469-1.339L20.119,36h0.962l0.231,0.661L21.781,38H23.2h2.5H26h2h3h2v-0.549C33.384,37.71,33.994,38,34.8,38h8.3c2.508,0,4.4-1.892,4.4-4.4c0-0.914-0.261-1.476-0.515-1.906l-0.095-0.19l-0.128-0.154L46.481,31H47h2v-2v-2v-2v-2v-2v-2H47z M35,25h3h1.998l0.001-0.55C40.382,24.709,40.993,25,41.8,25h0.5c-1.742,0-3.251,1.04-3.963,2.546C37.528,26.032,35.933,25,34.1,25H35z M38.866,32h-0.498c0.06-0.117,0.116-0.236,0.166-0.357l0.027,0.054l0.225,0.218C38.804,31.933,38.831,31.962,38.866,32z M2,21h7.6c0.4,0,0.7-0.3,0.6-0.7c0-0.1-0.1-0.2-0.1-0.3c0,0-1.5-2.2-1.8-2.6C8.2,17.2,8,17,8,16.4C8,15,9,14,10.3,14c0.9,0,13.5,0,13.5,0H24v2h-4v7h-3v-7h-5.4c-0.4,0-0.7,0.3-0.7,0.7c0,0.1,0.1,0.2,0.1,0.3l1.9,2.6c0.1,0.2,0.3,0.4,0.3,1c0,1.4-1.1,2.4-2.4,2.4C10.1,23,2,23,2,23V21z M22.91,18L22,20.824V18H22.91z M14.685,18.694l-0.075-0.15l-0.095-0.124L14.208,18H15v1.352C14.909,19.095,14.796,18.882,14.685,18.694z M15,21.94V23v2h-2h-1.158H10.8C12.798,25,14.446,23.732,15,21.94z M12.6,36h-1.7L9,30.5L7.1,36H5.4l-3-9h2.5l1.3,3.9L7.6,27h2.8l1.3,3.9L13,27h2.6L12.6,36z M23.2,36l-0.7-2h-3.8L18,36h-2.4l2.9-9h4.2l3,9H23.2z M26,27v3.575l-1.403-4.208L24.142,25H25.9H26V27z M25.9,23h-2.5l2.9-9h4.2l3.1,9h-2.5l-0.7-2h-3.8L25.9,23z M27.319,25l0.469-1.339L28.019,23h0.962l0.231,0.661L29.681,25H28H27.319z M47,29h-3.3c-0.3,0-0.6,0.4-0.6,0.8c0,0.1,0.1,0.2,0.1,0.3l2,2.5c0.1,0.2,0.3,0.4,0.3,1c0,1.5-1.1,2.4-2.4,2.4c-0.5,0-8,0-8.3,0c-0.4,0-0.7-0.2-0.8-0.3c-0.779-0.701-2.345-2.192-3-2.816C31,33.875,31,36,31,36h-3v-9h2.7h3.4c1.5,0,2.8,1.2,2.8,2.8c0,1.3-0.9,2.4-2.1,2.7c0,0,0.5,0.5,1,1.1c0.2,0.2,0.4,0.4,0.8,0.4c0.1,0,5.3,0,5.3,0c0.3,0,0.6-0.3,0.6-0.7c0-0.1-0.1-0.2-0.1-0.3c0,0-1.9-2.2-2.2-2.5c-0.1-0.2-0.3-0.4-0.3-1c0-1.4,1.1-2.5,2.4-2.5c0.9,0,4.7,0,4.7,0V29z M47,23c0,0-4.9,0-5.2,0c-0.4,0-0.7-0.2-0.8-0.3c-0.777-0.7-2.34-2.185-2.998-2.811C38.002,20.875,38,23,38,23h-3v-9h6c1.5,0,2.8,1.2,2.8,2.8c0,1.3-0.9,2.4-2.1,2.7c0,0,0.6,0.5,1.1,1.1c0.2,0.2,0.4,0.4,0.8,0.4H47V23z"/><path d="M19.4 32L21.8 32 20.6 28.4zM40.3 16H38v2h2.3c.6 0 1.1-.4 1.1-1C41.4 16.4 40.9 16 40.3 16zM27.2 19L29.6 19 28.4 15.4zM33.3 29H31v2h2.3c.6 0 1.1-.4 1.1-1C34.4 29.4 33.9 29 33.3 29z"/></svg>